<svg width="28" height="29" viewBox="0 0 28 29" fill="none" xmlns="http://www.w3.org/2000/svg">
<g id="Content View Gallery">
<path id="Shape" d="M3 7.74701C3 5.67594 4.67893 3.99701 6.75 3.99701H21.25C23.3211 3.99701 25 5.67594 25 7.74701V22.247C25 24.3181 23.3211 25.997 21.25 25.997H6.75C4.67893 25.997 3 24.3181 3 22.247V7.74701ZM6.75 5.49701C5.50736 5.49701 4.5 6.50437 4.5 7.74701V22.247C4.5 23.4897 5.50736 24.497 6.75 24.497H16V5.49701H6.75ZM21.25 24.497C22.4926 24.497 23.5 23.4897 23.5 22.247V19.497H17.5V24.497H21.25ZM23.5 17.997V11.997H17.5V17.997H23.5ZM23.5 10.497V7.74701C23.5 6.50437 22.4926 5.49701 21.25 5.49701H17.5V10.497H23.5ZM7.75 8.49701C7.05964 8.49701 6.5 9.05665 6.5 9.74701V13.247C6.5 13.9374 7.05964 14.497 7.75 14.497H12.75C13.4404 14.497 14 13.9374 14 13.247V9.74701C14 9.05665 13.4404 8.49701 12.75 8.49701H7.75ZM8 12.997V9.99701H12.5V12.997H8ZM6.5 17.247C6.5 16.8328 6.83579 16.497 7.25 16.497H13.25C13.6642 16.497 14 16.8328 14 17.247C14 17.6612 13.6642 17.997 13.25 17.997H7.25C6.83579 17.997 6.5 17.6612 6.5 17.247ZM7.25 19.997C6.83579 19.997 6.5 20.3328 6.5 20.747C6.5 21.1612 6.83579 21.497 7.25 21.497H13.25C13.6642 21.497 14 21.1612 14 20.747C14 20.3328 13.6642 19.997 13.25 19.997H7.25Z" fill="#4D4959"/>
</g>
</svg>
