<svg width="28" height="29" viewBox="0 0 28 29" fill="none" xmlns="http://www.w3.org/2000/svg">
<g id="Settings">
<path id="Shape" d="M14 10.4971C11.5147 10.4971 9.5 12.5118 9.5 14.9971C9.5 17.4824 11.5147 19.4971 14 19.4971C15.3488 19.4971 16.559 18.9036 17.3838 17.9636C18.0787 17.1716 18.5 16.1335 18.5 14.9971C18.5 14.5371 18.431 14.0933 18.3028 13.6754C17.7382 11.8351 16.0253 10.4971 14 10.4971ZM11 14.9971C11 13.3402 12.3431 11.9971 14 11.9971C15.6569 11.9971 17 13.3402 17 14.9971C17 16.6539 15.6569 17.9971 14 17.9971C12.3431 17.9971 11 16.6539 11 14.9971ZM21.7093 23.3918L19.9818 22.6334C19.4876 22.4167 18.9071 22.4485 18.44 22.7189C17.9729 22.9894 17.675 23.4663 17.6157 24.0036L17.408 25.8826C17.3651 26.27 17.084 26.5887 16.7055 26.679C14.9263 27.1031 13.0725 27.1031 11.2933 26.679C10.9148 26.5887 10.6336 26.27 10.5908 25.8826L10.3834 24.0063C10.3225 23.4701 10.0112 22.9946 9.54452 22.7251C9.07783 22.4556 8.51117 22.4239 8.01859 22.6394L6.29071 23.3979C5.93281 23.555 5.51493 23.4688 5.24806 23.1829C4.00474 21.8506 3.07924 20.2532 2.54122 18.5107C2.42533 18.1354 2.55922 17.7277 2.8749 17.4947L4.40219 16.3673C4.83721 16.0471 5.09414 15.5385 5.09414 14.9977C5.09414 14.4568 4.83721 13.9482 4.40162 13.6276L2.87529 12.5021C2.55914 12.269 2.42513 11.8608 2.54142 11.4852C3.08038 9.74435 4.00637 8.14864 5.24971 6.81815C5.51684 6.53229 5.93492 6.44642 6.29276 6.60392L8.01296 7.36105C8.50793 7.57869 9.07696 7.54582 9.54617 7.27116C10.0133 6.99965 10.3244 6.52228 10.3844 5.98495L10.5933 4.10718C10.637 3.71504 10.9245 3.39404 11.3089 3.30838C12.19 3.11205 13.0891 3.00772 14.0131 2.99707C14.9147 3.00748 15.8128 3.11185 16.6928 3.3085C17.077 3.39435 17.3643 3.71524 17.4079 4.10718L17.617 5.98638C17.7116 6.84922 18.4387 7.50273 19.3055 7.50364C19.5385 7.50401 19.769 7.45539 19.9843 7.35995L21.7048 6.60269C22.0626 6.44519 22.4807 6.53106 22.7478 6.81691C23.9912 8.14741 24.9172 9.74312 25.4561 11.484C25.5723 11.8593 25.4386 12.2673 25.1228 12.5005L23.5978 13.6267C23.1628 13.947 22.9 14.4556 22.9 14.9964C22.9 15.5373 23.1628 16.0459 23.5988 16.3668L25.1251 17.4935C25.441 17.7266 25.5748 18.1346 25.4586 18.5101C24.9198 20.2506 23.9944 21.8462 22.7517 23.1769C22.4849 23.4627 22.0671 23.5488 21.7093 23.3918ZM16.263 23.1936C16.4982 22.4655 16.9889 21.8259 17.6884 21.4208C18.5702 20.9102 19.6536 20.8517 20.5841 21.2597L21.9281 21.8496C22.791 20.8508 23.4593 19.6983 23.8981 18.4522L22.7095 17.5748L22.7086 17.5741C21.898 16.977 21.4 16.0247 21.4 14.9964C21.4 13.9689 21.8974 13.0165 22.7073 12.4197L22.7085 12.4188L23.8957 11.542C23.4567 10.2958 22.7881 9.14337 21.9248 8.14471L20.5922 8.73126L20.5899 8.73228C20.1844 8.91164 19.7472 9.00423 19.3039 9.00364C17.6715 9.00154 16.3046 7.77132 16.1261 6.15166L16.1259 6.14992L15.9635 4.69005C15.3202 4.57029 14.6677 4.50573 14.013 4.49718C13.3389 4.50592 12.6821 4.57068 12.0377 4.69029L11.8751 6.15153C11.7625 7.15973 11.1793 8.0561 10.3019 8.56687C9.41937 9.08261 8.34453 9.14544 7.40869 8.73395L6.07273 8.14594C5.20949 9.14452 4.54092 10.2968 4.10196 11.5429L5.29181 12.4203C6.11115 13.0239 6.59414 13.9807 6.59414 14.9977C6.59414 16.0143 6.11142 16.9712 5.29237 17.5746L4.10161 18.4536C4.54002 19.7014 5.2085 20.8555 6.07205 21.8557L7.41742 21.2652C8.34745 20.8583 9.41573 20.9185 10.2947 21.4262C11.174 21.934 11.7593 22.829 11.8738 23.837L11.8744 23.8415L12.0362 25.3058C13.3326 25.5608 14.6662 25.5608 15.9626 25.3058L16.1247 23.8388C16.1491 23.6187 16.1955 23.4025 16.263 23.1936Z" fill="#4D4959"/>
</g>
</svg>
