<svg width="21" height="22" viewBox="0 0 21 22" fill="none" xmlns="http://www.w3.org/2000/svg">
<path id="Vector" d="M12.9267 15.6853L15.9483 12.6637H4.66667V10.3303H15.9483L12.9267 7.30868L14.5833 5.66368L20.4167 11.497L14.5833 17.3303L12.9267 15.6853ZM18.6667 0.997009C19.2855 0.997009 19.879 1.24284 20.3166 1.68043C20.7542 2.11801 21 2.7115 21 3.33034V8.77868L18.6667 6.44534V3.33034H2.33333V19.6637H18.6667V16.5487L21 14.2153V19.6637C21 20.2825 20.7542 20.876 20.3166 21.3136C19.879 21.7512 19.2855 21.997 18.6667 21.997H2.33333C1.71449 21.997 1.121 21.7512 0.683417 21.3136C0.245833 20.876 0 20.2825 0 19.6637V3.33034C0 2.03534 1.03833 0.997009 2.33333 0.997009H18.6667Z" fill="#4D4959"/>
</svg>
